<?xml version="1.0" standalone="no"?>
<!DOCTYPE svg PUBLIC "-//W3C//DTD SVG 20010904//EN"
 "http://www.w3.org/TR/2001/REC-SVG-20010904/DTD/svg10.dtd">
<svg version="1.0" xmlns="http://www.w3.org/2000/svg"
 width="1200.000000pt" height="400.000000pt" viewBox="0 0 1200.000000 400.000000"
 preserveAspectRatio="xMidYMid meet">

<g transform="translate(0.000000,400.000000) scale(0.100000,-0.100000)"
fill="#000000" stroke="none">
<path d="M2385 3727 c-352 -90 -645 -165 -652 -168 -7 -2 201 -222 461 -489
346 -354 487 -492 522 -510 49 -25 149 -38 200 -26 27 7 27 8 -42 77 -75 75
-77 89 -20 117 35 18 58 4 146 -89 l65 -68 89 24 c49 13 90 26 91 27 2 2 -77
86 -175 188 l-178 185 21 23 c12 13 32 22 51 22 27 0 56 -25 223 -194 l192
-194 83 20 c46 12 87 24 92 29 5 4 -123 141 -284 304 l-292 296 23 25 c51 54
54 52 388 -286 l306 -310 88 22 c48 12 87 26 87 31 0 4 -179 191 -397 414
-219 223 -399 409 -401 413 -6 16 38 50 66 50 23 1 93 -66 447 -425 l420 -426
93 23 c50 13 92 28 91 33 0 6 -214 227 -475 491 -360 366 -485 487 -520 503
-101 48 -106 47 -809 -132z"/>
<path d="M1240 3438 c-309 -78 -485 -128 -525 -147 -75 -37 -162 -123 -203
-198 -20 -39 -86 -256 -197 -653 -92 -327 -170 -600 -172 -606 -2 -7 258 54
579 136 l583 147 30 103 30 103 495 -502 c272 -276 502 -502 511 -501 9 0 27
9 40 19 l24 20 -45 48 c-26 26 -258 265 -518 529 -288 293 -472 489 -472 500
0 19 46 184 53 190 3 3 446 -445 868 -879 120 -123 137 -133 180 -98 l23 19
-214 220 c-118 122 -353 362 -522 535 l-307 314 26 94 c14 52 28 96 29 98 7 8
111 -95 538 -531 334 -341 454 -458 471 -458 12 0 33 8 45 18 l23 18 -209 215
c-115 118 -349 357 -521 531 -172 174 -313 320 -313 325 0 4 13 52 28 106 l28
97 209 -212 c116 -117 338 -342 493 -500 204 -208 289 -288 305 -288 29 1 61
25 54 42 -2 7 -235 248 -516 535 -281 287 -511 528 -511 535 0 8 12 54 26 102
14 49 24 89 22 90 -2 1 -212 -51 -468 -116z"/>
<path d="M7205 1079 c-48 -18 -94 -57 -114 -97 -18 -36 -136 -462 -147 -532
-8 -48 9 -86 48 -110 30 -18 50 -20 193 -19 88 0 180 4 205 7 42 7 45 9 52 47
4 22 10 50 13 63 l5 22 -166 0 -167 0 6 48 c3 26 13 71 22 99 l16 52 151 3
151 3 13 45 c22 74 30 70 -135 70 l-149 0 9 38 c22 83 41 122 62 127 12 3 89
6 171 8 l149 2 20 58 c10 32 16 61 13 64 -12 12 -390 13 -421 2z"/>
<path d="M9263 875 c-29 -8 -76 -27 -105 -42 -29 -15 -57 -30 -62 -32 -5 -2
-7 13 -4 33 l4 37 -65 -3 -66 -3 -66 -245 c-36 -135 -69 -257 -73 -272 l-6
-28 83 0 84 0 50 188 49 187 65 17 c35 9 85 17 110 17 l46 1 27 73 c14 39 26
75 26 80 0 11 -38 8 -97 -8z"/>
<path d="M9617 880 c-168 -21 -249 -113 -295 -330 -34 -164 19 -229 194 -238
85 -4 247 18 266 36 4 4 10 30 13 57 l7 51 -98 -8 c-161 -14 -214 3 -214 69 0
23 2 23 118 23 64 0 134 5 156 9 78 19 135 104 136 202 0 52 -3 59 -35 87 -33
30 -49 34 -160 46 -16 2 -56 0 -88 -4z m107 -133 c17 -12 17 -18 7 -50 -7 -21
-21 -42 -31 -47 -19 -10 -180 -14 -180 -5 0 21 32 75 55 93 32 26 120 31 149
9z"/>
<path d="M8563 865 c-23 -7 -62 -24 -87 -39 l-45 -26 6 35 6 35 -69 0 -69 0
-101 -378 -101 -377 80 -3 c44 -2 81 -1 83 1 2 2 17 54 33 116 17 63 32 115
35 118 2 2 19 -3 37 -13 44 -22 157 -30 213 -14 66 18 111 61 150 143 44 94
67 184 68 262 2 76 -15 121 -53 140 -34 18 -129 18 -186 0z m61 -148 c7 -19 5
-47 -7 -100 -39 -162 -79 -198 -194 -177 -57 11 -62 14 -57 34 3 11 18 68 33
126 l28 105 54 22 c32 14 70 22 94 20 33 -2 41 -6 49 -30z"/>
<path d="M10110 869 c-78 -24 -126 -86 -137 -179 -10 -86 25 -116 161 -139
114 -20 155 -52 116 -91 -18 -18 -34 -20 -174 -20 l-154 0 -17 -51 c-9 -28
-15 -53 -12 -55 25 -25 318 -28 400 -4 114 34 179 221 97 282 -15 10 -59 23
-109 30 -79 11 -139 37 -148 63 -2 6 3 20 11 30 13 18 28 20 167 22 l153 2 20
51 c10 28 16 53 13 57 -12 11 -350 13 -387 2z"/>
<path d="M10688 866 c-84 -31 -125 -84 -134 -174 -9 -88 21 -114 162 -137 62
-10 93 -20 110 -36 31 -29 30 -44 -1 -65 -21 -13 -52 -16 -174 -16 l-148 1
-20 -54 -21 -55 37 -7 c20 -4 106 -8 191 -8 143 0 159 2 203 24 58 28 93 77
108 152 21 100 -16 134 -168 159 -108 17 -152 60 -99 95 19 13 52 16 167 14
l143 -1 19 51 c11 28 17 54 14 58 -4 3 -84 8 -179 10 -132 3 -182 0 -210 -11z"/>
<path d="M7643 857 c3 -8 22 -68 42 -134 l38 -120 -122 -139 -121 -139 67 -3
c37 -2 78 0 90 3 13 3 64 55 115 116 l93 111 28 -93 c45 -150 34 -139 127
-139 59 0 80 3 80 13 0 7 -18 67 -40 132 -22 65 -40 125 -40 133 0 11 91 122
204 250 l19 22 -89 -1 -89 0 -58 -72 c-31 -40 -70 -87 -86 -106 l-28 -34 -16
49 c-8 27 -23 75 -32 107 l-16 57 -85 0 c-67 0 -85 -3 -81 -13z"/>
</g>
</svg>
