<?xml version="1.0" encoding="UTF-8"?>
<svg version="1.1" xmlns="http://www.w3.org/2000/svg" width="1200" height="309">
<path d="M0 0 C2.65185547 2.46044922 2.65185547 2.46044922 4.71362305 4.97705078 C12.09747575 13.7936415 19.65253704 14.55544685 30.46435547 15.77294922 C33.59901182 16.1637744 36.72970692 16.57880473 39.85888672 17.01123047 C40.61358749 17.1143454 41.36828827 17.21746033 42.14585876 17.32369995 C55.92011449 19.37630173 67.81291186 25.34804268 76.85888672 36.01904297 C85.20286656 47.3806713 85.64091453 58.82635293 84.65185547 72.46044922 C83.85539295 76.79301338 82.5326184 80.4868492 80.65185547 84.46044922 C79.92289062 86.02279297 79.92289062 86.02279297 79.17919922 87.61669922 C74.65936623 96.59225409 68.87609106 106.31266644 60.90771484 112.63916016 C56.32837341 116.47698574 52.65702723 119.57017917 51.71923828 125.69335938 C51.32101514 130.61939917 51.4734139 135.52734236 51.65185547 140.46044922 C51.71739123 143.793689 51.75244907 147.12667359 51.77685547 150.46044922 C51.78602997 151.28283081 51.79520447 152.1052124 51.80465698 152.95251465 C51.84489875 186.8601475 37.17321014 217.66795501 13.65185547 241.46044922 C-13.89506225 268.6575648 -50.88305259 280.68089522 -88.97314453 280.71044922 C-90.14298386 280.71146133 -90.14298386 280.71146133 -91.3364563 280.7124939 C-138.75036023 280.64747092 -182.09892541 265.15253973 -215.85595703 231.32348633 C-221.80726026 225.1900159 -226.76756352 218.66056936 -231.34814453 211.46044922 C-232.04294922 210.38794922 -232.73775391 209.31544922 -233.45361328 208.21044922 C-245.50999035 188.43519245 -250.23452073 166.74499722 -253.27075195 144.08544922 C-253.97939938 138.81814555 -254.8823048 133.66169952 -255.97314453 128.46044922 C-262.22035302 95.83613823 -255.86341689 62.37210051 -237.22363281 34.796875 C-214.89895393 2.94094821 -179.20977825 -17.36022709 -141.34814453 -24.53955078 C-134.04539975 -25.77319885 -126.70992872 -26.73691374 -119.34814453 -27.53955078 C-118.06955566 -27.68420776 -118.06955566 -27.68420776 -116.76513672 -27.83178711 C-76.88386356 -31.94972291 -31.60101705 -26.85930472 0 0 Z " fill="#020201" transform="translate(368.34814453125,28.53955078125)"/>
<path d="M0 0 C0.90007278 -0.0049649 1.80014557 -0.00992981 2.72749329 -0.01504517 C5.68471049 -0.0295706 8.64187419 -0.0364501 11.59912109 -0.04199219 C13.66222128 -0.0477484 15.72532146 -0.05350607 17.78842163 -0.05926514 C22.1039047 -0.06974549 26.41936929 -0.07560858 30.73486328 -0.07910156 C36.26418391 -0.08460206 41.79326026 -0.10867568 47.32250404 -0.13707352 C51.57928183 -0.15568735 55.83600035 -0.16090467 60.0928154 -0.16243744 C62.13177206 -0.16546368 64.17072769 -0.17349122 66.20964432 -0.18662262 C69.05792257 -0.20366835 71.90559776 -0.20180727 74.75390625 -0.1953125 C75.59455124 -0.20452728 76.43519623 -0.21374207 77.30131531 -0.22323608 C81.91158889 -0.19028832 85.06447506 0.07646794 88.74755859 3.16113281 C90.79936049 6.13310888 91.01242786 8.64250437 91.06640625 12.20507812 C91.09621078 13.70618134 91.09621078 13.70618134 91.12661743 15.23760986 C91.14394424 16.8471756 91.14394424 16.8471756 91.16162109 18.48925781 C91.19067032 20.1454715 91.19067032 20.1454715 91.2203064 21.83514404 C91.28006751 25.36039515 91.32647423 28.88567896 91.37255859 32.41113281 C91.41074152 34.80177202 91.44979343 37.19239752 91.48974609 39.58300781 C91.58576626 45.44226108 91.67082407 51.30159697 91.74755859 57.16113281 C92.37960205 56.23092316 92.37960205 56.23092316 93.02441406 55.28192139 C100.39081601 44.44227035 107.78210856 33.62038729 115.24755859 22.84863281 C116.21532227 21.44665649 116.21532227 21.44665649 117.20263672 20.01635742 C119.0316772 17.38368346 120.8846453 14.76991555 122.74755859 12.16113281 C123.33408203 11.31631348 123.92060547 10.47149414 124.52490234 9.60107422 C125.10369141 8.80233887 125.68248047 8.00360352 126.27880859 7.18066406 C127.03000977 6.12455933 127.03000977 6.12455933 127.79638672 5.04711914 C133.45426123 -0.42173478 140.07361771 -0.30607977 147.50146484 -0.30761719 C148.52054428 -0.31523071 149.53962372 -0.32284424 150.58958435 -0.33068848 C152.73523517 -0.34145366 154.88093825 -0.34435722 157.02661133 -0.33984375 C160.30362141 -0.3388691 163.5783065 -0.38058175 166.85498047 -0.42480469 C168.9454704 -0.43001051 171.03596843 -0.4326999 173.12646484 -0.43261719 C174.10160538 -0.44901245 175.07674591 -0.46540771 176.08143616 -0.4822998 C180.53004772 -0.43720238 183.76751093 -0.32533524 187.35668945 2.47558594 C189.74755859 5.16113281 189.74755859 5.16113281 190.62255859 8.72363281 C190.13708207 14.51698597 186.33384856 18.87767499 183.00537109 23.42480469 C181.22515645 25.8822749 179.52056898 28.38914921 177.81054688 30.89575195 C176.40791011 32.95091107 174.99685143 35.00005136 173.58349609 37.04785156 C171.77258636 39.67299267 169.96483507 42.30023084 168.16162109 44.93066406 C163.36130619 51.93074549 158.53310234 58.91041776 153.67822266 65.87280273 C140.01771252 82.54626197 140.01771252 82.54626197 134.74755859 102.16113281 C136.96847417 107.89070271 140.46065817 112.85473726 144.06005859 117.78613281 C145.13593816 119.28494204 146.21007283 120.78500489 147.28271484 122.28613281 C147.84748535 123.07632813 148.41225586 123.86652344 148.99414062 124.68066406 C152.05388887 129.00912998 155.02266174 133.3991162 157.99755859 137.78613281 C162.65723014 144.64945831 167.34990727 151.48748662 172.09619141 158.29125977 C174.12960085 161.20662135 176.15562965 164.12700743 178.18115234 167.04785156 C180.26788693 170.05325364 182.37437256 173.0388374 184.53271484 175.99316406 C190.19074451 183.92638027 190.19074451 183.92638027 190.56005859 188.59863281 C189.52720038 193.12731882 188.48771157 194.40121609 184.74755859 197.16113281 C181.08040343 197.88291931 177.47845909 197.81437061 173.75146484 197.75488281 C172.15201271 197.75494324 172.15201271 197.75494324 170.52024841 197.75500488 C168.2684031 197.74965077 166.01655819 197.73207292 163.76489258 197.703125 C160.32558806 197.66132157 156.88824589 197.66205398 153.44873047 197.66894531 C151.2579617 197.65845056 149.067203 197.64551093 146.87646484 197.62988281 C145.85130264 197.6296814 144.82614044 197.62947998 143.76991272 197.62927246 C137.52433407 197.52622786 132.88587124 196.99059565 128.05566406 192.63574219 C124.41970567 188.12958224 121.09343715 183.47198113 117.87255859 178.66113281 C116.74324284 176.9925596 115.61298894 175.32462106 114.48193359 173.65722656 C113.88445312 172.77534668 113.28697266 171.8934668 112.67138672 170.98486328 C109.18935589 165.87405509 105.65547458 160.79933843 102.12255859 155.72363281 C101.43564941 154.73492187 100.74874023 153.74621094 100.04101562 152.72753906 C99.39503418 151.79941406 98.74905273 150.87128906 98.08349609 149.91503906 C97.51163574 149.09334229 96.93977539 148.27164551 96.35058594 147.42504883 C94.85163836 145.30812211 93.30799313 143.23289551 91.74755859 141.16113281 C91.74169235 141.76390549 91.73582611 142.36667816 91.7297821 142.98771667 C91.66580849 149.26596373 91.58137837 155.54370006 91.48510742 161.8215332 C91.45186953 164.16391259 91.42383409 166.50637185 91.40112305 168.84887695 C91.36755691 172.21763114 91.3152384 175.58565412 91.25927734 178.95410156 C91.25288742 180.00011032 91.2464975 181.04611908 91.23991394 182.12382507 C91.05435125 191.31694368 91.05435125 191.31694368 87.74755859 195.16113281 C84.60889823 197.25357306 83.84555278 197.41733106 80.26367188 197.45166016 C79.35908234 197.46441986 78.4544928 197.47717957 77.52249146 197.49032593 C76.54746674 197.49255157 75.57244202 197.49477722 74.56787109 197.49707031 C73.56295624 197.50372711 72.55804138 197.51038391 71.52267456 197.51724243 C69.39599438 197.52737095 67.2692824 197.53205939 65.14257812 197.53173828 C61.89188093 197.53610685 58.64254634 197.57241232 55.39208984 197.61035156 C53.32568824 197.6162206 51.25928018 197.62018941 49.19287109 197.62207031 C48.22189484 197.63644135 47.25091858 197.65081238 46.2505188 197.6656189 C41.89336384 197.6361855 39.43360876 197.58377613 35.65722656 195.25732422 C32.67336224 191.98201623 32.61847508 190.11073952 32.59606934 185.76426697 C32.58772568 184.61863785 32.57938202 183.47300873 32.57078552 182.29266357 C32.5666011 181.02972473 32.56241669 179.76678589 32.55810547 178.46557617 C32.55016534 177.12701658 32.54177757 175.78845959 32.53297424 174.4499054 C32.51490138 171.56447537 32.4998916 168.67905111 32.48719788 165.79359245 C32.46700883 161.23545029 32.43935323 156.67737252 32.41052246 152.11927795 C32.34527337 141.62198541 32.28985384 131.12464518 32.23453522 120.62729645 C32.18373699 111.00562474 32.1308933 101.38397641 32.07000971 91.76236254 C32.04159458 87.22662062 32.01802275 82.69088651 31.99808502 78.15509975 C31.98473614 75.3394612 31.96732202 72.52385869 31.94877434 69.70825005 C31.93726653 67.77020823 31.93074266 65.83213886 31.92433167 63.89407349 C31.91598801 62.75126419 31.90764435 61.6084549 31.89904785 60.43101501 C31.89131725 58.93192801 31.89131725 58.93192801 31.88343048 57.40255642 C31.99793603 55.19050161 31.99793603 55.19050161 30.74755859 54.16113281 C28.23575525 54.03525656 25.75298574 53.97247161 23.23974609 53.95800781 C22.48090118 53.95230774 21.72205627 53.94660767 20.94021606 53.94073486 C19.32783407 53.93126644 17.71543256 53.9247436 16.10302734 53.92089844 C13.65345506 53.91125445 11.20474399 53.8802759 8.75537109 53.84863281 C7.18766773 53.84209662 5.61995837 53.83684857 4.05224609 53.83300781 C2.96277176 53.81448761 2.96277176 53.81448761 1.85128784 53.79559326 C-4.4346259 53.82265992 -8.9488155 55.38105825 -14.00244141 59.28613281 C-19.58522254 66.41968648 -19.67989051 74.46946637 -19.60546875 83.2109375 C-19.60762894 84.38440231 -19.60978912 85.55786713 -19.61201477 86.76689148 C-19.61509008 89.30078921 -19.61153056 91.834702 -19.60200119 94.36858368 C-19.58822348 98.37824202 -19.5941536 102.38739838 -19.60684204 106.39703369 C-19.63685248 117.07090731 -19.6354682 127.74472593 -19.61658919 138.41862035 C-19.60425324 145.44711414 -19.6061142 152.47527984 -19.63497698 159.50373578 C-19.64770099 162.83569624 -19.64753381 166.16690496 -19.63029099 169.49886322 C-19.61130208 173.20929359 -19.62260561 176.91849786 -19.640625 180.62890625 C-19.62061684 182.27789162 -19.62061684 182.27789162 -19.60020447 183.96018982 C-19.68022514 191.35421039 -19.68022514 191.35421039 -22.50772095 195.34146118 C-25.27329087 197.17495541 -26.52207935 197.79095188 -29.77978516 197.80810547 C-31.07638062 197.83174667 -31.07638062 197.83174667 -32.39916992 197.85586548 C-33.32012451 197.84574432 -34.2410791 197.83562317 -35.18994141 197.82519531 C-36.14763428 197.82997894 -37.10532715 197.83476257 -38.09204102 197.83969116 C-40.11264696 197.84308683 -42.13330809 197.83390777 -44.15380859 197.81298828 C-47.24262251 197.78621791 -50.32780271 197.81274734 -53.41650391 197.84472656 C-55.38265774 197.84142241 -57.34880932 197.83501605 -59.31494141 197.82519531 C-60.235896 197.83531647 -61.15685059 197.84543762 -62.10571289 197.85586548 C-62.97010986 197.84010468 -63.83450684 197.82434387 -64.72509766 197.80810547 C-65.48056885 197.8041275 -66.23604004 197.80014954 -67.0144043 197.79605103 C-70.75570676 196.73466511 -72.01464274 195.36612065 -74.25244141 192.16113281 C-74.99859657 188.04659486 -74.92476331 183.97799641 -74.88354492 179.80615234 C-74.89427788 177.92462212 -74.89427788 177.92462212 -74.90522766 176.00508118 C-74.91923526 172.56798645 -74.91080315 169.13239747 -74.89113736 165.69542551 C-74.87470588 162.08428508 -74.88357165 158.47319217 -74.88865662 154.86203003 C-74.89317839 148.78745203 -74.87731722 142.71318177 -74.84936523 136.63867188 C-74.81745691 129.65126655 -74.81727241 122.6644206 -74.83458 115.67697632 C-74.85055494 108.92639469 -74.84363243 102.17601481 -74.82664299 95.42544174 C-74.81983342 92.56854645 -74.82074178 89.71181587 -74.82818794 86.85492325 C-74.87742365 62.86803495 -73.17510673 41.47338215 -55.57666016 23.42675781 C-54.80966797 22.67910156 -54.04267578 21.93144531 -53.25244141 21.16113281 C-52.51638672 20.39285156 -51.78033203 19.62457031 -51.02197266 18.83300781 C-37.35026115 5.36740251 -18.80714109 0.02513007 0 0 Z " fill="#000000" transform="translate(1010.25244140625,55.8388671875)"/>
<path d="M0 0 C1.31679245 -0.00209976 1.31679245 -0.00209976 2.66018677 -0.00424194 C32.0780468 0.03386624 71.94614368 1.51308048 94.93896484 22.34912109 C98.02199915 26.16786935 98.24852769 30.29599126 98.625 35.0625 C98.7276416 36.07086914 98.8302832 37.07923828 98.93603516 38.11816406 C101.6221901 67.00223018 99.41058582 97.8896277 80.359375 121.2109375 C78.17445586 123.68569285 75.92515153 126.07006799 73.625 128.4375 C73.07457031 129.04980469 72.52414062 129.66210938 71.95703125 130.29296875 C53.18542237 150.54776648 24.93508098 158.17154519 -1.68359375 159.6171875 C-37.71382615 160.44335843 -73.53356378 149.47105264 -100.10961914 124.74365234 C-117.32757045 108.06095914 -129.02163677 83.72374653 -129.67578125 59.6171875 C-129.69022754 57.18233139 -129.69395517 54.74739041 -129.6875 52.3125 C-129.70361328 51.08917969 -129.71972656 49.86585938 -129.73632812 48.60546875 C-129.74123423 39.52918152 -128.99489622 32.96178459 -122.87486267 25.82418823 C-120.33649642 23.4773583 -117.32179941 22.58912235 -114.07421875 21.65625 C-113.36964539 21.43671661 -112.66507202 21.21718323 -111.93914795 20.99099731 C-109.65276905 20.2853453 -107.3587041 19.6104251 -105.0625 18.9375 C-103.46789237 18.45586775 -101.87357446 17.97327531 -100.27954102 17.48974609 C-83.33478636 12.39194194 -66.30079546 8.1089012 -48.9375 4.6875 C-47.93195068 4.48850098 -46.92640137 4.28950195 -45.89038086 4.08447266 C-30.60428268 1.19702971 -15.53484597 -0.00239938 0 0 Z " fill="#FDFDFD" transform="translate(283.375,112.5625)"/>
<path d="M0 0 C0.63502441 0.20898926 1.27004883 0.41797852 1.92431641 0.63330078 C25.13035199 8.43487658 46.91639281 25.99772025 58 48 C58.94289797 51.86346398 59.1932818 53.47101823 57.8125 57.25 C55.89390296 60.16097482 55.14818276 60.78392408 52 62 C49.71258545 62.26069641 49.71258545 62.26069641 47.17480469 62.2746582 C46.2199115 62.28419022 45.26501831 62.29372223 44.28118896 62.30354309 C43.25511536 62.30263168 42.22904175 62.30172028 41.171875 62.30078125 C40.10890198 62.30506638 39.04592896 62.3093515 37.95074463 62.31376648 C35.70138256 62.31950812 33.45200193 62.32001127 31.20263672 62.31567383 C27.77669157 62.31252454 24.35161899 62.33593877 20.92578125 62.36132812 C18.73698025 62.36360232 16.54817694 62.36430405 14.359375 62.36328125 C13.34139832 62.372491 12.32342163 62.38170074 11.27459717 62.39118958 C3.96843768 62.34415242 -1.6419745 61.3658816 -7.75 57.0625 C-18.38459058 50.31362521 -30.40579557 49.40568546 -42.55859375 51.66015625 C-54.90158565 55.0184968 -64.91781368 62.55555301 -71.53515625 73.55078125 C-77.66769307 85.33311876 -79.3187639 98.69919969 -75.375 111.5 C-73.60288583 116.10749684 -71.27643384 120.08301278 -68.3671875 124.0625 C-67 126 -67 126 -66.0703125 128.125 C-64.71154931 130.50531507 -63.48167626 130.91625881 -61 132 C-59.63649681 132.94500221 -58.28285377 133.90433354 -56.9375 134.875 C-46.05558243 142.15929507 -34.01233185 144.39332697 -21.1875 141.921875 C-12.1111972 139.29686586 -3.68924463 134.68924463 3 128 C3.33 127.34 3.66 126.68 4 126 C2.13081909 125.99383667 2.13081909 125.99383667 0.22387695 125.98754883 C-4.40772638 125.96574633 -9.03848154 125.91144485 -13.66967773 125.84741211 C-15.67252461 125.82424189 -17.67549317 125.80983868 -19.6784668 125.80444336 C-22.56115454 125.79514667 -25.44193119 125.75414094 -28.32421875 125.70703125 C-29.21711105 125.7109639 -30.11000336 125.71489655 -31.029953 125.71894836 C-35.20329384 125.62141365 -37.47403004 125.33193581 -41.06542969 123.06542969 C-43.7883208 118.75086371 -43.70251794 115.25535087 -43.62890625 110.24609375 C-43.63131821 109.30822525 -43.63373016 108.37035675 -43.63621521 107.40406799 C-43.63523786 105.42631796 -43.62187108 103.44854019 -43.59692383 101.47094727 C-43.5625724 98.44388011 -43.57628099 95.41972618 -43.59570312 92.39257812 C-43.58880563 90.46873758 -43.57913412 88.54490456 -43.56640625 86.62109375 C-43.57384605 85.26473061 -43.57384605 85.26473061 -43.58143616 83.88096619 C-43.46435899 77.6379798 -43.46435899 77.6379798 -41.15209961 74.46118164 C-38.08671118 72.37991678 -35.60662638 71.87479366 -31.99038696 71.85955811 C-31.17731583 71.85384796 -30.36424469 71.84813782 -29.52653503 71.84225464 C-28.19396416 71.84057785 -28.19396416 71.84057785 -26.83447266 71.83886719 C-25.8959697 71.83390228 -24.95746674 71.82893738 -23.99052429 71.82382202 C-20.88169627 71.8092009 -17.77291927 71.80239877 -14.6640625 71.796875 C-12.50556435 71.79112389 -10.34706623 71.78536615 -8.18856812 71.77960205 C-3.6608659 71.76909247 0.86681855 71.76324939 5.39453125 71.75976562 C11.19748714 71.75427839 17.00020869 71.73024515 22.80309105 71.70179367 C27.26232592 71.68317548 31.72150423 71.67796214 36.18077469 71.67642975 C38.32020983 71.67340128 40.45964394 71.66536625 42.59904099 71.65224457 C45.59143699 71.63520004 48.58325881 71.63706044 51.57568359 71.64355469 C52.46001572 71.6343399 53.34434784 71.62512512 54.25547791 71.6156311 C60.23265865 71.65628995 63.66236107 72.66236107 68 77 C73.36340964 103.78394074 67.62777052 130.2098379 53.0234375 153.09765625 C36.97137672 175.83274632 14.54436924 191.25898066 -12.86328125 196.4765625 C-16.91927214 197.15340282 -20.8923002 197.76985723 -25 198 C-26.37091797 198.07927734 -26.37091797 198.07927734 -27.76953125 198.16015625 C-55.58187439 198.96479008 -80.1297324 188.84245675 -101 171 C-101.68578125 170.41734375 -102.3715625 169.8346875 -103.078125 169.234375 C-122.05243518 151.67870484 -131.91436485 124.63918999 -132.9609375 99.37109375 C-133.5810421 70.28554936 -122.37548965 44.72746833 -102.6875 23.62890625 C-76.36045973 -2.12414332 -34.98330228 -11.83312964 0 0 Z " fill="#000000" transform="translate(609,58)"/>
<path d="M0 0 C2.65185547 2.46044922 2.65185547 2.46044922 4.71362305 4.97705078 C12.09747575 13.7936415 19.65253704 14.55544685 30.46435547 15.77294922 C33.59901182 16.1637744 36.72970692 16.57880473 39.85888672 17.01123047 C40.61358749 17.1143454 41.36828827 17.21746033 42.14585876 17.32369995 C55.92011449 19.37630173 67.81291186 25.34804268 76.85888672 36.01904297 C85.20286656 47.3806713 85.64091453 58.82635293 84.65185547 72.46044922 C83.85539295 76.79301338 82.5326184 80.4868492 80.65185547 84.46044922 C79.92289062 86.02279297 79.92289062 86.02279297 79.17919922 87.61669922 C74.65936623 96.59225409 68.87609106 106.31266644 60.90771484 112.63916016 C56.32837341 116.47698574 52.65702723 119.57017917 51.71923828 125.69335938 C51.32101514 130.61939917 51.4734139 135.52734236 51.65185547 140.46044922 C51.71739123 143.793689 51.75244907 147.12667359 51.77685547 150.46044922 C51.78602997 151.28283081 51.79520447 152.1052124 51.80465698 152.95251465 C51.84489875 186.8601475 37.17321014 217.66795501 13.65185547 241.46044922 C-13.89506225 268.6575648 -50.88305259 280.68089522 -88.97314453 280.71044922 C-90.14298386 280.71146133 -90.14298386 280.71146133 -91.3364563 280.7124939 C-138.75036023 280.64747092 -182.09892541 265.15253973 -215.85595703 231.32348633 C-221.80726026 225.1900159 -226.76756352 218.66056936 -231.34814453 211.46044922 C-232.04294922 210.38794922 -232.73775391 209.31544922 -233.45361328 208.21044922 C-245.50999035 188.43519245 -250.23452073 166.74499722 -253.27075195 144.08544922 C-253.97939938 138.81814555 -254.8823048 133.66169952 -255.97314453 128.46044922 C-262.22035302 95.83613823 -255.86341689 62.37210051 -237.22363281 34.796875 C-214.89895393 2.94094821 -179.20977825 -17.36022709 -141.34814453 -24.53955078 C-134.04539975 -25.77319885 -126.70992872 -26.73691374 -119.34814453 -27.53955078 C-118.06955566 -27.68420776 -118.06955566 -27.68420776 -116.76513672 -27.83178711 C-76.88386356 -31.94972291 -31.60101705 -26.85930472 0 0 Z M-135.34814453 -2.53955078 C-136.11658691 -2.39501465 -136.8850293 -2.25047852 -137.67675781 -2.1015625 C-160.179556 2.27115684 -180.79858429 11.67940249 -198.34814453 26.46044922 C-199.22986328 27.19005859 -200.11158203 27.91966797 -201.02001953 28.67138672 C-220.01033773 45.00777846 -233.63724156 68.83052258 -235.55151367 94.15039062 C-235.65104182 96.96561541 -235.67641079 99.76854489 -235.66064453 102.58544922 C-235.65790527 103.58447266 -235.65516602 104.58349609 -235.65234375 105.61279297 C-235.51686742 115.31725848 -234.23117497 124.50335293 -231.29736328 133.78466797 C-230.13340579 138.29200953 -229.85229943 142.64277937 -229.53564453 147.27294922 C-227.1824577 175.35136138 -215.17549738 199.63309637 -195.34814453 219.46044922 C-194.47416016 220.33443359 -193.60017578 221.20841797 -192.69970703 222.10888672 C-172.21011321 241.63709197 -144.15977309 252.90146623 -116.34814453 256.46044922 C-115.58260254 256.56196289 -114.81706055 256.66347656 -114.02832031 256.76806641 C-78.51209372 261.35874687 -43.37409295 256.47701333 -13.91064453 234.96044922 C-12.04063975 233.48024108 -10.18553309 231.98095483 -8.34814453 230.46044922 C-7.49994141 229.77595703 -6.65173828 229.09146484 -5.77783203 228.38623047 C16.58121516 209.42659954 27.19147214 182.2001612 29.65185547 153.46044922 C29.78801458 149.83414902 29.79026267 146.21392527 29.77685547 142.58544922 C29.78362305 141.5796582 29.79039062 140.57386719 29.79736328 139.53759766 C29.8019162 134.74337391 29.68037235 130.09319367 29.00341797 125.34326172 C27.50845951 114.39116437 27.50845951 114.39116437 29.66943359 110.7421875 C32.82239652 107.00521507 36.68747451 104.27802671 40.65185547 101.46044922 C51.36179416 92.2507354 60.86154753 78.83132398 63.08544922 64.70654297 C63.37795082 58.90082945 62.20233334 54.11107516 58.65185547 49.46044922 C49.86770589 40.7159572 38.0036176 39.6653199 26.27685547 37.89794922 C24.91736511 37.68840981 23.55798906 37.47812747 22.19873047 37.26708984 C21.53347855 37.16397995 20.86822662 37.06087006 20.18281555 36.95463562 C18.22300912 36.64904688 16.26396193 36.33860161 14.30493164 36.02807617 C11.99618766 35.66933596 9.68397386 35.33171974 7.36791992 35.02368164 C0.2802285 33.98558245 0.2802285 33.98558245 -2.82080078 31.39404297 C-3.34544922 30.57033203 -3.87009766 29.74662109 -4.41064453 28.89794922 C-18.91260321 8.49539601 -42.69036947 -0.02329746 -66.34814453 -4.53955078 C-71.52779226 -5.40752516 -76.52042636 -5.71178563 -81.75439453 -5.74267578 C-82.54824554 -5.74964478 -83.34209656 -5.75661377 -84.16000366 -5.76379395 C-86.72277139 -5.78115954 -89.28532033 -5.78751874 -91.84814453 -5.78955078 C-93.1598764 -5.7910614 -93.1598764 -5.7910614 -94.49810791 -5.79260254 C-108.30941426 -5.78183991 -121.75389429 -5.17078657 -135.34814453 -2.53955078 Z " fill="#24B63A" transform="translate(368.34814453125,28.53955078125)"/>
<path d="M0 0 C0.88464432 -0.00960754 1.76928864 -0.01921509 2.68074036 -0.02911377 C4.11820869 -0.03548859 4.11820869 -0.03548859 5.5847168 -0.04199219 C7.06091743 -0.0505423 7.06091743 -0.0505423 8.56694031 -0.05926514 C10.65252607 -0.06872269 12.73812682 -0.07525211 14.82373047 -0.07910156 C18.01060181 -0.0887962 21.19682534 -0.11980819 24.38354492 -0.15136719 C26.40893171 -0.15789827 28.43432312 -0.16314833 30.4597168 -0.16699219 C31.41195633 -0.17933899 32.36419586 -0.19168579 33.34529114 -0.20440674 C38.26121459 -0.18790617 41.77513044 -0.13472653 45.72143555 3.16113281 C47.21282885 6.14391942 46.8730689 9.19576731 46.87533569 12.46723938 C46.88190907 13.60994735 46.88190907 13.60994735 46.88861525 14.77574033 C46.90202701 17.34211383 46.9081874 19.90845298 46.91430664 22.47485352 C46.92220568 24.30937862 46.9304745 26.14390217 46.93908691 27.97842407 C46.96532787 34.01457226 46.98061564 40.05072747 46.99487305 46.08691406 C47.00023169 48.16268608 47.00560919 50.23845805 47.0110054 52.31422997 C47.03263629 60.94669779 47.05137431 69.57916373 47.06262779 78.2116518 C47.07887549 90.59485111 47.11207086 102.97773705 47.16902864 115.36081821 C47.20768837 124.0615017 47.22725572 132.76210124 47.23254836 141.46286839 C47.23620698 146.66271303 47.24828256 151.8622236 47.28065109 157.06197548 C47.31066226 161.95317575 47.31706844 166.84383861 47.30526733 171.73511124 C47.30504602 173.53103447 47.3133986 175.32698214 47.33092117 177.1228199 C47.35353668 179.57388923 47.34535499 182.02299718 47.32943726 184.47407532 C47.35026039 185.54159364 47.35026039 185.54159364 47.37150419 186.630678 C47.30954241 190.49959978 46.8039861 192.05964105 44.32847881 195.10315323 C41.53748657 197.3063407 40.4761945 197.78273156 36.99462891 197.76049805 C36.08696274 197.76657578 35.17929657 197.7726535 34.24412537 197.77891541 C32.79236656 197.74961693 32.79236656 197.74961693 31.3112793 197.71972656 C30.30682266 197.71739517 29.30236603 197.71506378 28.26747131 197.71266174 C26.14844241 197.70293609 24.02943905 197.68117634 21.91064453 197.64819336 C18.66684495 197.59875336 15.42456242 197.5867095 12.18041992 197.58105469 C10.11985691 197.56696929 8.05930706 197.5507651 5.9987793 197.53222656 C5.02891586 197.52686386 4.05905243 197.52150116 3.05979919 197.51597595 C2.15528519 197.49998856 1.25077118 197.48400116 0.31884766 197.4675293 C-0.47437393 197.4568895 -1.26759552 197.44624969 -2.08485413 197.43528748 C-4.61273503 197.1193705 -6.16005285 196.58009388 -8.27856445 195.16113281 C-10.50497881 191.98203532 -10.5292646 189.1658376 -10.53393555 185.35449219 C-10.54089447 184.18648071 -10.54785339 183.01846924 -10.55502319 181.81506348 C-10.55402618 180.55770386 -10.55302917 179.30034424 -10.55200195 178.00488281 C-10.56709541 176.02731723 -10.58221169 174.0497515 -10.59868813 172.07219696 C-10.63646965 167.19841235 -10.65362171 162.32460284 -10.65942383 157.45068359 C-10.6634673 154.71356321 -10.67801698 151.97686992 -10.70376587 149.23986816 C-10.72724798 146.66241078 -10.73455569 144.08474575 -10.72421265 141.50720215 C-10.73747589 140.33919067 -10.75073914 139.1711792 -10.7644043 137.96777344 C-10.76725433 136.94059204 -10.77010437 135.91341064 -10.77304077 134.85510254 C-11.4176282 131.42005276 -12.50464457 130.23826969 -15.27856445 128.16113281 C-17.28405138 127.58267543 -17.28405138 127.58267543 -19.41699219 127.67871094 C-20.22140244 127.67190308 -21.02581268 127.66509521 -21.854599 127.65808105 C-22.71509354 127.66940063 -23.57558807 127.68072021 -24.4621582 127.69238281 C-25.35467789 127.68533325 -26.24719757 127.67828369 -27.16676331 127.67102051 C-30.97932804 127.64153145 -34.79138206 127.65816232 -38.60400391 127.67041016 C-41.39036568 127.67279187 -44.17589924 127.65186649 -46.9621582 127.62988281 C-48.24986366 127.64686218 -48.24986366 127.64686218 -49.56358337 127.66418457 C-53.66467905 127.62961177 -55.75054329 127.49410759 -59.29833984 125.25683594 C-62.10425726 122.28728902 -62.4087117 120.67604471 -62.47143555 116.69897461 C-62.48749847 115.77428879 -62.5035614 114.84960297 -62.52011108 113.89689636 C-62.5645449 109.66605334 -62.60562513 105.43536746 -62.62866211 101.2043457 C-62.6452246 98.97246882 -62.67251826 96.74064504 -62.71069336 94.5090332 C-62.7654404 91.29252584 -62.78733316 88.07726201 -62.80200195 84.86035156 C-62.82467133 83.86436447 -62.8473407 82.86837738 -62.87069702 81.84220886 C-62.85712525 77.39385641 -62.7143035 74.86083231 -60.32592773 71.02563477 C-56.11674613 68.45028467 -52.84069599 68.51879503 -47.99731445 68.62988281 C-47.10620972 68.62661987 -46.21510498 68.62335693 -45.29699707 68.61999512 C-41.49692283 68.60685068 -37.69802812 68.65162488 -33.89819336 68.69091797 C-31.11836696 68.71139639 -28.33967045 68.70256175 -25.55981445 68.69238281 C-24.7044812 68.71200073 -23.84914795 68.73161865 -22.96789551 68.75183105 C-18.99523403 68.73452142 -16.73786125 68.42276736 -13.23388672 66.42675781 C-10.14881461 61.27431375 -10.63159116 56.27208346 -10.7121582 50.37988281 C-10.70652359 49.13364136 -10.70088898 47.8873999 -10.69508362 46.60339355 C-10.67861702 42.62237265 -10.69398749 38.64206511 -10.71606445 34.66113281 C-10.73430166 30.6802635 -10.74177161 26.69978585 -10.72633362 22.71887207 C-10.71703851 20.24255146 -10.72626691 17.76607695 -10.75596619 15.28991699 C-10.72934794 6.92811855 -10.72934794 6.92811855 -8.37646484 2.92480469 C-5.40637687 0.42789843 -3.79614102 0.0332352 0 0 Z " fill="#000000" transform="translate(818.278564453125,55.8388671875)"/>
<path d="M0 0 C0.88464432 -0.00960754 1.76928864 -0.01921509 2.68074036 -0.02911377 C3.63905258 -0.03336365 4.59736481 -0.03761353 5.5847168 -0.04199219 C7.06091743 -0.0505423 7.06091743 -0.0505423 8.56694031 -0.05926514 C10.65252607 -0.06872269 12.73812682 -0.07525211 14.82373047 -0.07910156 C18.01060181 -0.0887962 21.19682534 -0.11980819 24.38354492 -0.15136719 C26.40893171 -0.15789827 28.43432312 -0.16314833 30.4597168 -0.16699219 C31.41195633 -0.17933899 32.36419586 -0.19168579 33.34529114 -0.20440674 C38.26121459 -0.18790617 41.77513044 -0.13472653 45.72143555 3.16113281 C47.21282885 6.14391942 46.8730689 9.19576731 46.87533569 12.46723938 C46.88190907 13.60994735 46.88190907 13.60994735 46.88861525 14.77574033 C46.90202701 17.34211383 46.9081874 19.90845298 46.91430664 22.47485352 C46.92220568 24.30937862 46.9304745 26.14390217 46.93908691 27.97842407 C46.96532787 34.01457226 46.98061564 40.05072747 46.99487305 46.08691406 C47.00023169 48.16268608 47.00560919 50.23845805 47.0110054 52.31422997 C47.03263629 60.94669779 47.05137431 69.57916373 47.06262779 78.2116518 C47.07887549 90.59485111 47.11207086 102.97773705 47.16902864 115.36081821 C47.20768837 124.0615017 47.22725572 132.76210124 47.23254836 141.46286839 C47.23620698 146.66271303 47.24828256 151.8622236 47.28065109 157.06197548 C47.31066226 161.95317575 47.31706844 166.84383861 47.30526733 171.73511124 C47.30504602 173.53103447 47.3133986 175.32698214 47.33092117 177.1228199 C47.35353668 179.57388923 47.34535499 182.02299718 47.32943726 184.47407532 C47.35026039 185.54159364 47.35026039 185.54159364 47.37150419 186.630678 C47.30956847 190.49797229 46.80421187 192.05932406 44.33043098 195.10189152 C41.52637663 197.31508992 40.42058316 197.79088124 36.91870117 197.80810547 C35.99424194 197.82386627 35.06978271 197.83962708 34.11730957 197.85586548 C32.63744568 197.84068375 32.63744568 197.84068375 31.12768555 197.82519531 C30.10340454 197.82997894 29.07912354 197.83476257 28.02380371 197.83969116 C25.86196351 197.84308795 23.70007179 197.8339011 21.53833008 197.81298828 C18.23231295 197.78622088 14.92969102 197.81274498 11.6237793 197.84472656 C9.52090723 197.84142243 7.41803728 197.83501612 5.31518555 197.82519531 C3.83532166 197.84037704 3.83532166 197.84037704 2.32556152 197.85586548 C0.93887268 197.83222427 0.93887268 197.83222427 -0.47583008 197.80810547 C-1.28459595 197.8041275 -2.09336182 197.80014954 -2.92663574 197.79605103 C-6.50400767 196.83031657 -7.95939611 195.01121845 -10.27856445 192.16113281 C-10.77010029 189.39550261 -10.95271473 187.24586863 -10.90675354 184.48753357 C-10.91384793 183.72245942 -10.92094231 182.95738526 -10.92825168 182.16912705 C-10.9458336 179.60922702 -10.92772718 177.050845 -10.90966797 174.4909668 C-10.9148067 172.65437122 -10.92208762 170.81778058 -10.93135071 168.98120117 C-10.94987757 163.99566501 -10.9369185 159.01066308 -10.91726041 154.02514911 C-10.90088573 148.80997762 -10.90968504 143.59484029 -10.91477966 138.37965393 C-10.91930153 129.62256323 -10.90342394 120.86568607 -10.87548828 112.10864258 C-10.84342601 101.97982677 -10.84345571 91.8513959 -10.86070305 81.72255272 C-10.87655756 71.98298079 -10.86984215 62.24355018 -10.85276604 52.50398445 C-10.84588791 48.35690621 -10.84693577 44.20994099 -10.85431099 40.0628643 C-10.86196288 35.18146041 -10.84988359 30.30049554 -10.82246208 25.41916656 C-10.81556602 23.62607947 -10.81549332 21.83295146 -10.82267761 20.03986549 C-10.83134464 17.59533388 -10.8154645 15.15216579 -10.79322815 12.70774841 C-10.80146892 11.99520305 -10.80970968 11.28265768 -10.81820017 10.54852003 C-10.76108764 7.1558133 -10.50572712 5.44808836 -8.37139797 2.75196934 C-5.36586786 0.46735996 -3.71268267 0.03250452 0 0 Z " fill="#000000" transform="translate(698.278564453125,55.8388671875)"/>
<path d="M0 0 C41.96071647 -0.78419031 84.19378869 2.95752656 125.59228516 9.69140625 C126.79554443 9.88516846 127.99880371 10.07893066 129.23852539 10.27856445 C139.62783432 12.08251309 139.62783432 12.08251309 144.09228516 15.06640625 C145.735337 18.92757808 145.52626464 20.78878562 144.18603516 24.734375 C138.22353854 37.85533413 127.8809022 47.82200132 117.09228516 57.06640625 C114.03119278 55.66959711 111.34504296 53.90110933 108.57885742 51.99511719 C87.64796179 37.78812096 61.73003992 34.6936765 37.09228516 32.06640625 C36.19622559 31.96996826 35.30016602 31.87353027 34.37695312 31.77416992 C16.62793515 30.00179333 -1.24574992 30.80196988 -18.90771484 33.06640625 C-20.27524902 33.2358374 -20.27524902 33.2358374 -21.67041016 33.40869141 C-35.49576807 35.18501448 -48.96317086 38.12631591 -62.47021484 41.50390625 C-63.22053986 41.69091095 -63.97086487 41.87791565 -64.743927 42.07058716 C-73.54940621 44.27959065 -82.24811905 46.67216871 -90.84266663 49.60850525 C-95.58530571 51.17387596 -95.58530571 51.17387596 -98.90771484 50.06640625 C-92.95216305 41.56585726 -86.85613887 33.21774686 -80.34912109 25.12890625 C-78.98064404 23.41228864 -77.63365454 21.67588775 -76.37255859 19.87890625 C-68.12761061 8.58307538 -50.63455346 5.28323883 -37.70068359 3.1953125 C-25.14830895 1.30238874 -12.6814091 0.2896174 0 0 Z " fill="#F72E00" transform="translate(270.90771484375,71.93359375)"/>
<path d="M0 0 C0.78072372 -0.00014603 1.56144745 -0.00029205 2.36582947 -0.0004425 C4.94679542 0.00025425 7.52768923 0.00803557 10.10864258 0.01586914 C11.89797425 0.01773416 13.68730643 0.01915767 15.47663879 0.02015686 C20.18664967 0.02397541 24.89662972 0.03380006 29.60662842 0.04486084 C34.4126341 0.05508918 39.21864477 0.05965754 44.0246582 0.06469727 C53.45501029 0.0754229 62.8853395 0.0924914 72.31567383 0.11352539 C72.81067383 2.58852539 72.81067383 2.58852539 73.31567383 5.11352539 C72.63762695 5.51442383 71.95958008 5.91532227 71.26098633 6.32836914 C54.14839277 16.78079817 42.4399069 30.9600039 36.95629883 50.46899414 C36.31567383 52.11352539 36.31567383 52.11352539 34.31567383 53.11352539 C32.95376178 53.22249779 31.58684843 53.27246018 30.22070312 53.29052734 C28.9537989 53.3097802 28.9537989 53.3097802 27.66130066 53.329422 C26.74673599 53.33680893 25.83217133 53.34419586 24.88989258 53.35180664 C23.48028008 53.36391426 23.48028008 53.36391426 22.04219055 53.37626648 C20.05076953 53.39011092 18.05932473 53.40083146 16.06787109 53.40869141 C13.02566415 53.42589818 9.98454557 53.46978021 6.94262695 53.51391602 C5.00839016 53.52404343 3.07414412 53.53255938 1.13989258 53.53930664 C0.2314006 53.55681473 -0.67709137 53.57432281 -1.6131134 53.59236145 C-5.79202052 53.57804666 -8.08927117 53.47215803 -11.73583984 51.27441406 C-15.40684917 47.20323206 -14.87577115 42.69159935 -14.92260742 37.50024414 C-14.93067917 36.65307327 -14.93875092 35.8059024 -14.94706726 34.93305969 C-14.96089307 33.14012693 -14.97162195 31.34716801 -14.97949219 29.55419922 C-14.9966972 26.82151033 -15.04059466 24.09003413 -15.0847168 21.35766602 C-15.09484504 19.61353426 -15.10336073 17.86939225 -15.11010742 16.12524414 C-15.12761551 15.31254562 -15.1451236 14.49984711 -15.16316223 13.66252136 C-15.14306833 8.36924719 -14.27548034 5.26702728 -10.68432617 1.11352539 C-7.06522666 -0.09284111 -3.76609374 -0.01836517 0 0 Z " fill="#000000" transform="translate(891.684326171875,55.886474609375)"/>
<path d="M0 0 C1.02746338 -0.00101212 1.02746338 -0.00101212 2.07568359 -0.00204468 C26.14529979 0.03552021 51.50764903 4.58718147 70 21.25 C70 21.58 70 21.91 70 22.25 C61.30943104 22.4201716 52.68436385 21.92777107 44.0163269 21.39440918 C-24.51261431 15.78019142 -24.51261431 15.78019142 -86.5625 39.75 C-92.41549942 45.31978977 -97.17652982 51.80006353 -102 58.25 C-102.56444824 58.99813965 -103.12889648 59.7462793 -103.71044922 60.51708984 C-110.2703569 69.22237614 -116.69474281 77.95823407 -122.42431641 87.23828125 C-123.26097343 88.58933345 -124.12702511 89.92212505 -125 91.25 C-125.33 91.25 -125.66 91.25 -126 91.25 C-127.27026743 70.40820472 -117.23232961 52.12917493 -103.921875 36.8671875 C-83.25495508 14.89901706 -54.25315151 4.74779894 -25 1.25 C-24.25782227 1.1557373 -23.51564453 1.06147461 -22.75097656 0.96435547 C-15.18249546 0.0920295 -7.61184003 0.00676843 0 0 Z " fill="#24B43A" transform="translate(275,37.75)"/>
<path d="M0 0 C11.12562983 0.00501954 22.20307657 1.19399245 33.26879883 2.23730469 C37.02392022 2.589278 40.78032847 2.92407159 44.53710938 3.2578125 C46.92327198 3.47814133 49.30934357 3.69945864 51.6953125 3.921875 C53.38102104 4.07044449 53.38102104 4.07044449 55.1007843 4.22201538 C56.13333847 4.32196808 57.16589264 4.42192078 58.22973633 4.52490234 C59.59416618 4.6514772 59.59416618 4.6514772 60.98616028 4.78060913 C63.17578125 5.2109375 63.17578125 5.2109375 65.17578125 7.2109375 C65.44140625 9.5234375 65.44140625 9.5234375 65.42578125 12.2109375 C65.43351562 13.54125 65.43351562 13.54125 65.44140625 14.8984375 C65.17578125 17.2109375 65.17578125 17.2109375 63.17578125 19.2109375 C60.55981445 19.68164062 60.55981445 19.68164062 57.2265625 19.9921875 C55.38215576 20.17044067 55.38215576 20.17044067 53.50048828 20.35229492 C52.16312088 20.47223274 50.82571763 20.59177135 49.48828125 20.7109375 C48.12217544 20.83833204 46.75612744 20.96634798 45.39013672 21.0949707 C42.62952305 21.35324335 39.86847386 21.60584112 37.10693359 21.85400391 C33.61399801 22.1711491 30.12334701 22.50529757 26.6328125 22.84765625 C15.84442487 23.88223179 5.02095762 24.86407837 -5.82421875 24.2109375 C-7.47815992 22.55699633 -6.95421558 20.60778337 -6.95703125 18.3359375 C-6.95832031 17.35109375 -6.95960938 16.36625 -6.9609375 15.3515625 C-6.95707031 14.31515625 -6.95320312 13.27875 -6.94921875 12.2109375 C-6.95501953 10.65632812 -6.95501953 10.65632812 -6.9609375 9.0703125 C-6.95964844 8.08546875 -6.95835937 7.100625 -6.95703125 6.0859375 C-6.95590332 5.17585937 -6.95477539 4.26578125 -6.95361328 3.328125 C-6.68896476 -1.00212408 -3.7103017 0.0322842 0 0 Z " fill="#000000" transform="translate(6.82421875,145.7890625)"/>
<path d="M0 0 C2.95607763 1.05104983 3.69579781 1.75905216 5.75 4 C21.64563652 20.6104296 46.24815996 26.72943165 68.52709961 27.29833984 C85.83533554 27.41178517 104.25380181 24.43726922 117.8125 13 C118.1425 12.67 118.4725 12.34 118.8125 12 C121.25 11.8125 121.25 11.8125 123.8125 12 C124.8025 12.99 124.8025 12.99 125.8125 14 C125.53215621 17.93118455 124.49626223 19.86737636 121.5625 22.4375 C102.72525278 37.90493555 76.80221829 37.08003413 53.8125 36 C47.59499633 35.37966179 41.72281091 34.00034314 35.8125 32 C35.15556152 31.78037598 34.49862305 31.56075195 33.82177734 31.33447266 C19.9762369 26.55232926 3.23067535 18.62726302 -5.1875 6 C-4.9375 3.375 -4.9375 3.375 -4.1875 1 C-2.1875 0 -2.1875 0 0 0 Z " fill="#060606" transform="translate(222.1875,197)"/>
<path d="M0 0 C0.74459473 0.0522876 1.48918945 0.1045752 2.25634766 0.15844727 C10.83060114 0.78680165 19.3893077 1.61379633 27.94238281 2.47949219 C30.67717989 2.75526168 33.41274107 3.02237816 36.1484375 3.2890625 C37.89067609 3.46303076 39.63286571 3.63749032 41.375 3.8125 C42.59968994 3.93129517 42.59968994 3.93129517 43.84912109 4.05249023 C49.51023386 4.63523386 49.51023386 4.63523386 50.625 5.75 C50.69726502 7.60287502 50.7088122 9.45833878 50.6875 11.3125 C50.67847656 12.32441406 50.66945312 13.33632812 50.66015625 14.37890625 C50.64855469 15.16136719 50.63695312 15.94382813 50.625 16.75 C45.97844136 19.00627584 41.43964796 19.36295581 36.37109375 19.8203125 C35.47439468 19.90626678 34.57769562 19.99222107 33.65382385 20.08078003 C31.75710734 20.26078845 29.86003358 20.43706639 27.96264648 20.60986328 C25.09581502 20.87195428 22.2305743 21.14790917 19.36523438 21.42578125 C-2.46124034 23.49751599 -2.46124034 23.49751599 -8.375 22.75 C-11.20226984 19.92273016 -10.66471809 17.78224876 -10.69726562 13.91796875 C-10.69404297 13.03753906 -10.69082031 12.15710938 -10.6875 11.25 C-10.70361328 10.36957031 -10.71972656 9.48914063 -10.73632812 8.58203125 C-10.73697266 7.74027344 -10.73761719 6.89851562 -10.73828125 6.03125 C-10.74126221 5.25845703 -10.74424316 4.48566406 -10.74731445 3.68945312 C-10.62445068 3.04943359 -10.50158691 2.40941406 -10.375 1.75 C-6.67861971 -0.71425353 -4.22434525 -0.3405172 0 0 Z " fill="#000000" transform="translate(59.375,220.25)"/>
<path d="M0 0 C0.75507843 0.11168518 1.51015686 0.22337036 2.28811646 0.33843994 C4.4532102 0.65987131 6.6173303 0.98717455 8.78125 1.31640625 C10.68487305 1.60366577 10.68487305 1.60366577 12.62695312 1.89672852 C15.5 2.4375 15.5 2.4375 16.5 3.4375 C16.59854655 5.08090867 16.62972411 6.7286461 16.625 8.375 C16.62886719 9.71884766 16.62886719 9.71884766 16.6328125 11.08984375 C16.5 13.4375 16.5 13.4375 15.5 15.4375 C13.00564626 15.83356358 10.60244233 16.09927525 8.08984375 16.2890625 C6.95029991 16.38469986 6.95029991 16.38469986 5.78773499 16.48226929 C4.16639682 16.61612464 2.54466314 16.74525748 0.92260742 16.87011719 C-1.50130555 17.05776268 -3.92336336 17.26189516 -6.34570312 17.46875 C-16.37293027 18.29463209 -26.43725721 18.9385842 -36.5 18.4375 C-38.43043686 16.50706314 -37.63256219 13.66225198 -37.63671875 11.09765625 C-37.63285156 10.26105469 -37.62898438 9.42445312 -37.625 8.5625 C-37.62886719 7.73363281 -37.63273437 6.90476562 -37.63671875 6.05078125 C-37.63542969 5.25285156 -37.63414063 4.45492187 -37.6328125 3.6328125 C-37.63168457 2.90078613 -37.63055664 2.16875977 -37.62939453 1.41455078 C-37.5 -0.5625 -37.5 -0.5625 -36.5 -3.5625 C-28.27805988 -7.67347006 -9.23413028 -1.37916591 0 0 Z " fill="#000000" transform="translate(77.5,84.5625)"/>
<path d="M0 0 C2.94630376 2.71723457 5.74073802 5.87490178 6.23828125 9.953125 C6.41793771 15.51301978 5.74769054 18.60984822 2 23 C-1.76499581 25.5099972 -3.54293606 25.61476744 -8 25 C-11.06072339 22.45460249 -13.78303738 19.08617904 -14.203125 15.046875 C-14.30730929 9.94184467 -13.99750883 6.34121968 -11 2 C-7.22009121 -1.16695061 -4.66098849 -1.65076676 0 0 Z " fill="#060606" transform="translate(266,152)"/>
<path d="M0 0 C3.47486034 2.73552835 4.71137791 4.2910534 5.4453125 8.63671875 C5.63207831 13.20002994 5.25722927 16.40322808 3.4375 20.625 C1 23 1 23 -2.4375 24.125 C-6 24 -6 24 -8.8125 22.375 C-11.68218264 19.25934456 -13.00394993 17.16851354 -12.99609375 12.85546875 C-12.63582005 8.23323381 -11.92550411 4.74464526 -9 1 C-5.82121306 -0.58939347 -3.5043228 -0.41576711 0 0 Z " fill="#050505" transform="translate(347,154)"/>
</svg>
