<svg width="21" height="20" viewBox="0 0 21 20" fill="none" xmlns="http://www.w3.org/2000/svg">
<path fill-rule="evenodd" clip-rule="evenodd" d="M9.99526 2.65833C10.0528 2.4758 10.1671 2.31637 10.3214 2.2032C10.4758 2.09002 10.6622 2.02901 10.8536 2.02901C11.045 2.02901 11.2314 2.09002 11.3858 2.2032C11.5401 2.31637 11.6544 2.4758 11.7119 2.65833L13.2619 7.425H18.2619C18.4602 7.4175 18.6554 7.47512 18.8178 7.58903C18.9802 7.70295 19.1009 7.8669 19.1614 8.05585C19.2218 8.24479 19.2188 8.44833 19.1527 8.63538C19.0865 8.82242 18.961 8.98268 18.7953 9.09167L14.7369 12.0333L16.2869 16.8083C16.3482 16.9902 16.3498 17.1869 16.2913 17.3698C16.2329 17.5526 16.1175 17.712 15.9621 17.8246C15.8067 17.9372 15.6193 17.9972 15.4274 17.9957C15.2355 17.9943 15.049 17.9316 14.8953 17.8167L10.8286 14.8417L6.77026 17.7917C6.61651 17.9066 6.43006 17.9693 6.23813 17.9707C6.04619 17.9722 5.85883 17.9122 5.7034 17.7996C5.54797 17.687 5.43261 17.5276 5.37418 17.3448C5.31574 17.1619 5.31729 16.9652 5.37859 16.7833L6.92859 12.0083L2.87026 9.06667C2.70449 8.95768 2.57897 8.79742 2.51286 8.61038C2.44675 8.42334 2.44369 8.21979 2.50415 8.03085C2.56461 7.8419 2.68527 7.67795 2.84769 7.56403C3.0101 7.45012 3.20535 7.3925 3.40359 7.4H8.40359L9.99526 2.65833Z" stroke="#D1D1D1" stroke-width="1.5" stroke-linecap="round" stroke-linejoin="round"/>
</svg>
