<svg width="16" height="16" viewBox="0 0 16 16" fill="none" xmlns="http://www.w3.org/2000/svg">
<g clip-path="url(#clip0_17281_28389)">
<path fill-rule="evenodd" clip-rule="evenodd" d="M7.3341 2.12667C7.38014 1.98064 7.47155 1.85309 7.59503 1.76256C7.71851 1.67202 7.86764 1.62321 8.02076 1.62321C8.17388 1.62321 8.32301 1.67202 8.44649 1.76256C8.56997 1.85309 8.66138 1.98064 8.70743 2.12667L9.94743 5.94H13.9474C14.106 5.934 14.2622 5.98009 14.3921 6.07123C14.5221 6.16236 14.6186 6.29352 14.667 6.44468C14.7153 6.59583 14.7129 6.75867 14.66 6.9083C14.6071 7.05794 14.5067 7.18615 14.3741 7.27333L11.1274 9.62667L12.3674 13.4467C12.4165 13.5922 12.4177 13.7496 12.371 13.8958C12.3242 14.0421 12.2319 14.1696 12.1076 14.2597C11.9832 14.3498 11.8333 14.3977 11.6798 14.3966C11.5263 14.3955 11.3771 14.3453 11.2541 14.2533L8.00076 11.8733L4.7541 14.2333C4.6311 14.3253 4.48194 14.3755 4.32839 14.3766C4.17484 14.3777 4.02495 14.3298 3.90061 14.2397C3.77627 14.1496 3.68398 14.0221 3.63723 13.8758C3.59049 13.7296 3.59172 13.5722 3.64076 13.4267L4.88076 9.60667L1.6341 7.25333C1.50148 7.16615 1.40106 7.03794 1.34818 6.8883C1.29529 6.73867 1.29284 6.57583 1.34121 6.42468C1.38958 6.27352 1.48611 6.14236 1.61604 6.05123C1.74597 5.96009 1.90217 5.91401 2.06076 5.92H6.06076L7.3341 2.12667Z" stroke="#EBEBEB" stroke-width="1.5" stroke-linecap="round" stroke-linejoin="round"/>
</g>
<defs>
<clipPath id="clip0_17281_28389">
<rect width="16" height="16" fill="white"/>
</clipPath>
</defs>
</svg>
