<svg width="21" height="20" viewBox="0 0 21 20" fill="none" xmlns="http://www.w3.org/2000/svg">
<path fill-rule="evenodd" clip-rule="evenodd" d="M9.42397 2.65838C9.48153 2.47584 9.59578 2.31641 9.75014 2.20324C9.90449 2.09007 10.0909 2.02905 10.2823 2.02905C10.4737 2.02905 10.6601 2.09007 10.8145 2.20324C10.9688 2.31641 11.0831 2.47584 11.1406 2.65838L12.6906 7.42505H17.6906C17.8889 7.41755 18.0841 7.47516 18.2465 7.58908C18.409 7.70299 18.5296 7.86695 18.5901 8.05589C18.6505 8.24484 18.6475 8.44838 18.5814 8.63542C18.5153 8.82247 18.3897 8.98273 18.224 9.09171L14.1656 12.0334L15.7156 16.8084C15.7769 16.9903 15.7785 17.187 15.72 17.3698C15.6616 17.5526 15.5463 17.712 15.3908 17.8246C15.2354 17.9372 15.048 17.9972 14.8561 17.9958C14.6642 17.9944 14.4777 17.9316 14.324 17.8167L10.2573 14.8417L6.19897 17.7917C6.04522 17.9066 5.85877 17.9694 5.66684 17.9708C5.4749 17.9722 5.28754 17.9122 5.13211 17.7996C4.97668 17.687 4.86133 17.5276 4.80289 17.3448C4.74445 17.162 4.746 16.9653 4.8073 16.7834L6.3573 12.0084L2.29897 9.06671C2.1332 8.95773 2.00768 8.79747 1.94157 8.61042C1.87546 8.42338 1.8724 8.21984 1.93286 8.03089C1.99333 7.84195 2.11398 7.67799 2.2764 7.56408C2.43881 7.45016 2.63406 7.39255 2.8323 7.40005H7.8323L9.42397 2.65838Z" fill="#151515"/>
</svg>
