<svg width="17" height="16" viewBox="0 0 17 16" fill="none" xmlns="http://www.w3.org/2000/svg">
<path fill-rule="evenodd" clip-rule="evenodd" d="M7.94835 2.12669C7.9944 1.98066 8.08581 1.85312 8.20929 1.76258C8.33277 1.67204 8.4819 1.62323 8.63502 1.62323C8.78814 1.62323 8.93727 1.67204 9.06075 1.76258C9.18423 1.85312 9.27564 1.98066 9.32169 2.12669L10.5617 5.94002H14.5617C14.7203 5.93403 14.8765 5.98012 15.0064 6.07125C15.1363 6.16238 15.2329 6.29355 15.2812 6.4447C15.3296 6.59586 15.3272 6.75869 15.2743 6.90833C15.2214 7.05796 15.121 7.18617 14.9884 7.27336L11.7417 9.62669L12.9817 13.4467C13.0307 13.5922 13.032 13.7496 12.9852 13.8958C12.9385 14.0421 12.8462 14.1696 12.7218 14.2597C12.5975 14.3498 12.4476 14.3978 12.2941 14.3966C12.1405 14.3955 11.9913 14.3453 11.8684 14.2534L8.61502 11.8734L5.36835 14.2334C5.24536 14.3253 5.0962 14.3755 4.94265 14.3766C4.7891 14.3778 4.63921 14.3298 4.51487 14.2397C4.39052 14.1496 4.29824 14.0221 4.25149 13.8758C4.20474 13.7296 4.20598 13.5722 4.25502 13.4267L5.49502 9.60669L2.24835 7.25336C2.11574 7.16617 2.01532 7.03796 1.96243 6.88833C1.90955 6.73869 1.9071 6.57586 1.95547 6.4247C2.00384 6.27355 2.10037 6.14238 2.2303 6.05125C2.36023 5.96012 2.51643 5.91403 2.67502 5.92002H6.67502L7.94835 2.12669Z" stroke="#D1D1D1" stroke-linecap="round" stroke-linejoin="round"/>
</svg>
