<svg width="21" height="20" viewBox="0 0 21 20" fill="none" xmlns="http://www.w3.org/2000/svg">
<path fill-rule="evenodd" clip-rule="evenodd" d="M9.29604 2.65832C9.3536 2.47578 9.46785 2.31635 9.62221 2.20318C9.77656 2.09001 9.96297 2.02899 10.1544 2.02899C10.3458 2.02899 10.5322 2.09001 10.6865 2.20318C10.8409 2.31635 10.9551 2.47578 11.0127 2.65832L12.5627 7.42498H17.5627C17.7609 7.41749 17.9562 7.4751 18.1186 7.58902C18.281 7.70293 18.4017 7.86689 18.4621 8.05583C18.5226 8.24478 18.5195 8.44832 18.4534 8.63536C18.3873 8.82241 18.2618 8.98266 18.096 9.09165L14.0377 12.0333L15.5877 16.8083C15.649 16.9902 15.6505 17.1869 15.5921 17.3698C15.5337 17.5526 15.4183 17.7119 15.2629 17.8246C15.1075 17.9372 14.9201 17.9972 14.7282 17.9957C14.5362 17.9943 14.3498 17.9316 14.196 17.8167L10.1294 14.8417L6.07104 17.7917C5.91729 17.9066 5.73084 17.9693 5.53891 17.9707C5.34697 17.9722 5.15961 17.9122 5.00418 17.7996C4.84875 17.6869 4.7334 17.5276 4.67496 17.3448C4.61653 17.1619 4.61807 16.9652 4.67937 16.7833L6.22937 12.0083L2.17104 9.06665C2.00527 8.95766 1.87975 8.79741 1.81364 8.61036C1.74753 8.42332 1.74447 8.21978 1.80493 8.03083C1.8654 7.84189 1.98605 7.67793 2.14847 7.56402C2.31088 7.4501 2.50613 7.39249 2.70437 7.39998H7.70437L9.29604 2.65832Z" stroke="#EBEBEB" stroke-width="1.5" stroke-linecap="round" stroke-linejoin="round"/>
</svg>
