<svg width="16" height="16" viewBox="0 0 16 16" fill="none" xmlns="http://www.w3.org/2000/svg">
<g clip-path="url(#clip0_17281_28461)">
<path fill-rule="evenodd" clip-rule="evenodd" d="M7.3341 2.12669C7.38014 1.98066 7.47155 1.85312 7.59503 1.76258C7.71851 1.67204 7.86764 1.62323 8.02076 1.62323C8.17388 1.62323 8.32301 1.67204 8.44649 1.76258C8.56997 1.85312 8.66138 1.98066 8.70743 2.12669L9.94743 5.94002H13.9474C14.106 5.93403 14.2622 5.98012 14.3921 6.07125C14.5221 6.16238 14.6186 6.29355 14.667 6.4447C14.7153 6.59586 14.7129 6.75869 14.66 6.90833C14.6071 7.05796 14.5067 7.18617 14.3741 7.27336L11.1274 9.62669L12.3674 13.4467C12.4165 13.5922 12.4177 13.7496 12.371 13.8958C12.3242 14.0421 12.2319 14.1696 12.1076 14.2597C11.9832 14.3498 11.8333 14.3978 11.6798 14.3966C11.5263 14.3955 11.3771 14.3453 11.2541 14.2534L8.00076 11.8734L4.7541 14.2334C4.6311 14.3253 4.48194 14.3755 4.32839 14.3766C4.17484 14.3778 4.02495 14.3298 3.90061 14.2397C3.77627 14.1496 3.68398 14.0221 3.63723 13.8758C3.59049 13.7296 3.59172 13.5722 3.64076 13.4267L4.88076 9.60669L1.6341 7.25336C1.50148 7.16617 1.40106 7.03796 1.34818 6.88833C1.29529 6.73869 1.29284 6.57586 1.34121 6.4247C1.38958 6.27355 1.48611 6.14238 1.61604 6.05125C1.74597 5.96012 1.90217 5.91403 2.06076 5.92002H6.06076L7.3341 2.12669Z" stroke="#EBEBEB" stroke-width="1.5" stroke-linecap="round" stroke-linejoin="round"/>
</g>
<defs>
<clipPath id="clip0_17281_28461">
<rect width="16" height="16" fill="white"/>
</clipPath>
</defs>
</svg>
