<svg width="21" height="20" viewBox="0 0 21 20" fill="none" xmlns="http://www.w3.org/2000/svg">
<path fill-rule="evenodd" clip-rule="evenodd" d="M9.29604 2.65835C9.3536 2.47581 9.46785 2.31638 9.62221 2.20321C9.77656 2.09004 9.96297 2.02902 10.1544 2.02902C10.3458 2.02902 10.5322 2.09004 10.6865 2.20321C10.8409 2.31638 10.9551 2.47581 11.0127 2.65835L12.5627 7.42502H17.5627C17.7609 7.41752 17.9562 7.47513 18.1186 7.58905C18.281 7.70296 18.4017 7.86692 18.4621 8.05586C18.5226 8.24481 18.5195 8.44835 18.4534 8.63539C18.3873 8.82244 18.2618 8.9827 18.096 9.09168L14.0377 12.0333L15.5877 16.8083C15.649 16.9902 15.6505 17.187 15.5921 17.3698C15.5337 17.5526 15.4183 17.712 15.2629 17.8246C15.1075 17.9372 14.9201 17.9972 14.7282 17.9958C14.5362 17.9943 14.3498 17.9316 14.196 17.8167L10.1294 14.8417L6.07104 17.7917C5.91729 17.9066 5.73084 17.9693 5.53891 17.9708C5.34697 17.9722 5.15961 17.9122 5.00418 17.7996C4.84875 17.687 4.7334 17.5276 4.67496 17.3448C4.61653 17.162 4.61807 16.9652 4.67937 16.7833L6.22937 12.0083L2.17104 9.06668C2.00527 8.9577 1.87975 8.79744 1.81364 8.61039C1.74753 8.42335 1.74447 8.21981 1.80493 8.03086C1.8654 7.84192 1.98605 7.67796 2.14847 7.56405C2.31088 7.45013 2.50613 7.39252 2.70437 7.40002H7.70437L9.29604 2.65835Z" stroke="#EBEBEB" stroke-width="1.5" stroke-linecap="round" stroke-linejoin="round"/>
</svg>
